<?xml version="1.0" encoding="UTF-8"?>
<svg id="Layer_1" data-name="Layer 1" xmlns="http://www.w3.org/2000/svg" version="1.1" viewBox="0 0 30 25">
  <defs>
    <style>
      .cls-1 {
        fill: #f87171;
        stroke: #f87171;
        stroke-width: .3px;
      }
    </style>
  </defs>
  <path class="cls-1" d="M12,1c-.7,0-1.3.3-1.5,1-.2.7.2,1.5.9,1.7h0l12.9,3.7h.3c0,0-.3.3-.3.3L1.4,20.4h-.2c-.5.5-.7,1.2-.4,1.8.4.7,1.2.9,1.8.5l23.1-12.8.3-.2v.3c-.1,0-3.8,12.9-3.8,12.9v.2c-.1.7.3,1.3.9,1.5.7.2,1.5-.2,1.7-.9l4.7-16.4h0s0,0,0,0c0,0,0-.1,0-.2,0,0,0,0,0,0h0s0,0,0,0h0s0,0,0-.1c0,0,0,0,0,0h0s0,0,0-.1c0,0,0,0,0,0h0s0,0,0-.1c0,0,0,0,0,0h0s0,0,0-.1h0c0-.1-17.4-5.5-17.4-5.5ZM12,1h.2s16.4,4.7,16.4,4.7c0,0,.2,0,.3.1,0,0,0,0,0,0h0s0,0,0,0c0,0,0,0,0,0,0,0,0,0,0,0h0s0,0,0,0c0,0,0,0,0,0h0s0,0,0,0c0,0,0,0,0,0h0s0,0,0,0L12,1Z"/>
</svg>