<?xml version="1.0" encoding="UTF-8"?>
<svg id="Layer_1" data-name="Layer 1" xmlns="http://www.w3.org/2000/svg" version="1.1" viewBox="0 0 640 512">
  <defs>
    <style>
      .cls-1 {
        fill: #fff;
        stroke-width: 0px;
      }
    </style>
  </defs>
  <path class="cls-1" d="M400,96c26.5,0,48-21.5,48-48S426.5,0,400,0s-48,21.5-48,48,21.5,48,48,48ZM396,217c5.7,4.5,12.7,7,20,7h64c17.7,0,32-14.3,32-32s-14.3-32-32-32h-52.8l-71.2-57c-12-9.6-29.1-9.3-40.8.7l-112,96c-13.4,11.5-15,31.7-3.5,45.1,1.9,2.2,4.1,4.2,6.5,5.8l81.7,54.5v110.9c0,17.7,14.3,32,32,32s32-14.3,32-32v-128c0-10.7-5.3-20.7-14.2-26.6l-41.4-27.6,58.2-49.9,41.4,33.1ZM512,256c-70.7,0-128,57.3-128,128s57.3,128,128,128,128-57.3,128-128-57.3-128-128-128ZM512,448c-35.3,0-64-28.7-64-64s28.7-64,64-64,64,28.7,64,64-28.7,64-64,64ZM128,256C57.3,256,0,313.3,0,384s57.3,128,128,128,128-57.3,128-128-57.3-128-128-128ZM128,448c-35.3,0-64-28.7-64-64s28.7-64,64-64,64,28.7,64,64-28.7,64-64,64Z"/>
</svg>