<?xml version="1.0" encoding="UTF-8"?>
<svg xmlns="http://www.w3.org/2000/svg" version="1.1" xmlns:xodm="http://www.corel.com/coreldraw/odm/2003" viewBox="0 0 512 472">
  <defs>
    <style>
      .cls-1 {
        fill: #fff;
        fill-rule: evenodd;
        stroke-width: 0px;
      }
    </style>
  </defs>
  <g id="Layer_1" data-name="Layer 1" image-rendering="optimizeQuality" shape-rendering="geometricPrecision" text-rendering="geometricPrecision">
    <g id="Layer_1-2" data-name="Layer_1">
      <path class="cls-1" d="M248.1,1.7c86.1,10.8,169,59.3,248.7,144.1,17.4,23.5,22.9,43.8-.6,49.6h-2.2c0,.2.1.4.1.7v14c0,8.7-7.1,15.8-15.8,15.8H78c-8.7,0-15.8-7.1-15.8-15.8v-14c0-.2,0-.3,0-.5-13.4-.2-24.7-5.7-33.8-14.5C-18,136.3-4.5,70.5,49.2,38.8,106.7,5,200.1-4.3,248.1,1.7h0ZM258.1,389.1h41.8c2.7,0,4.9,2.2,4.9,4.9v57c0,2.7-2.2,4.9-4.9,4.9h-41.8c-2.7,0-4.9-2.2-4.9-4.9v-57c0-2.7,2.2-4.9,4.9-4.9ZM258.1,373h4.6v-95.7c-4.5-2.5-9.7-4.3-18.1-3.4-24.9,2.8-38.1,35.3-69.2,45-4.3,1.3-8.7,2.3-13.2,2.7,6.7,22.3,17.7,40.9,31.5,55,12.4,12.7,27.1,21.8,43.4,27v-9.6c0-5.7,2.4-11,6.2-14.8h0c3.8-3.9,9.1-6.2,14.8-6.2ZM294.9,373h5c5.7,0,11,2.4,14.8,6.2h0c3.8,3.9,6.2,9.1,6.2,14.9v57c0,5.7-2.4,11-6.2,14.8h0c-3.8,3.9-9.1,6.2-14.8,6.2h-41.8c-5.7,0-11-2.4-14.8-6.2h0c-3.8-3.9-6.2-9.2-6.2-14.9v-13.9c-25.1-6-47.9-19-66.4-38-20.1-20.6-35.2-48.2-42.8-81.6-33.9-10.9-52.7-40.9-47.3-80.1h269.8c-20.4,24.5-39.2,41-55.5,46.4v89.3ZM179.2,111.7c75.7-21.6,167.7,2.3,224.5,62.7-65.7-37-113.3-46.6-228-39.8-15.2.9-25.3-14.8,3.5-23h0ZM151.7,42.4c105.8-22.1,229,17.2,303.1,103.3-90.5-60.4-157.5-81.6-316.5-69.8-26.4,1.9-31.6-24.1,13.5-33.5h0Z"/>
    </g>
  </g>
</svg>