<?xml version="1.0" encoding="UTF-8"?>
<svg id="Layer_1" data-name="Layer 1" xmlns="http://www.w3.org/2000/svg" version="1.1" xmlns:svg="http://www.w3.org/2000/svg" viewBox="0 0 72 72">
  <defs>
    <style>
      .cls-1 {
        fill: #fff;
        stroke-width: 0px;
      }
    </style>
  </defs>
  <path class="cls-1" d="M65.6,39.2c1.9,0,3.4-1.5,3.4-3.4s-1.5-3.4-3.4-3.4-3.4,1.5-3.4,3.4,1.5,3.4,3.4,3.4ZM61.3,35.9c0-2.4,1.9-4.3,4.3-4.3s4.3,1.9,4.3,4.3-1.9,4.3-4.3,4.3-4.3-1.9-4.3-4.3M47.8,45.7c1.5-1.8,2.6-4,3.1-6.4h-5.2v15.8c-2.1,1-4.3,1.7-6.7,2.1V14.8h0c10.5,1.4,18.5,10.3,18.5,21.2s-1.9,10.1-5.1,13.9l-4.7-4.1ZM45.6,32.7h5.3c-.7-3.4-2.6-6.4-5.3-8.6v8.6M65.8,34.7h-1.1v.8h1.1c.1,0,.3-.2.3-.4s-.3-.4-.3-.4ZM64.7,36.5v1.8h-1.1v-4.5h2.8s1,.3,1,1c0,.7,0,.8-.1.9,0,.1-.3.5-.6.6l1,1.9h-1.2l-1-1.8h-.8M15.4,41.4c2.2,8.3,9.2,14.6,17.8,15.8v-19.7l-10-9.6c1-1.5,2.2-2.9,3.6-4v3.6s6.5,0,6.5,0v-12.7c-8.5,1.1-15.5,7.2-17.8,15.3l11.2,10v8c-2.7-2.1-4.6-5-5.4-8.3l-5.8,1.7M36,2.1C17.3,2.1,2.1,17.2,2.1,36s15.2,33.9,33.9,33.9,19.8-4.7,26-12.2l-6.5-5.7c-4.6,5.5-11.5,9-19.3,9-13.9,0-25.2-11.2-25.2-25.1h0c0-14,11.3-25.3,25.2-25.3s14.8,3.6,19.4,9.1l6.5-5.5c-6.2-7.5-15.6-12.2-26.1-12.2Z"/>
</svg>